<svg width="57" height="57" viewBox="0 0 57 57" fill="none" xmlns="http://www.w3.org/2000/svg">
<path d="M36.1483 15.3175C37.1039 13.7199 37.6143 11.8939 37.6258 10.033C37.6562 5.13457 33.7534 1.03791 28.8585 0.849435C23.6638 0.64949 19.374 4.81739 19.374 9.96843V10.0137C19.374 11.8716 19.8723 13.6999 20.8151 15.301L28.0586 27.6031C28.2243 27.8846 28.6309 27.8859 28.7984 27.6057L36.1483 15.3175ZM22.7878 10.188C22.7878 7.08559 25.3118 4.56156 28.4142 4.56156C31.5167 4.56156 34.0407 7.08559 34.0407 10.188C34.0407 13.2905 31.5167 15.8145 28.4142 15.8145C25.3118 15.8145 22.7878 13.2905 22.7878 10.188Z" fill="white"/>
<path d="M28.4142 8.11792C27.2728 8.11792 26.3442 9.04651 26.3442 10.1878C26.3442 11.3293 27.2728 12.258 28.4142 12.258C29.5556 12.258 30.4843 11.3294 30.4843 10.1878C30.4843 9.04651 29.5556 8.11792 28.4142 8.11792Z" fill="white"/>
<path d="M55.2627 27.6421H47.5624C45.212 34.0907 35.5415 40.5289 29.3421 40.9602C28.7014 41.0047 28.066 41.0122 27.4516 41.0192C25.9688 41.0364 24.5682 41.0527 23.482 41.5938C22.8757 41.8958 22.2929 42.4016 21.6758 42.9374C21.0194 43.5071 20.3407 44.0963 19.5028 44.5771C18.2017 45.3239 16.6351 45.7099 14.9676 45.7099C14.3579 45.7099 13.7348 45.6582 13.106 45.5538C10.7496 45.1622 8.86985 44.4775 7.35913 43.4603C6.20299 42.682 5.05397 42.4486 4.05347 42.411C8.79248 50.2428 17.1881 55.6134 26.8741 56.1572C26.9883 55.3822 27.2252 54.2775 27.717 53.0709C28.9337 50.0863 31.1203 47.9453 34.0406 46.8796C37.1264 45.7534 39.9923 45.2732 42.7641 44.8089C46.4718 44.1877 49.9763 43.5994 53.4923 41.4676C55.4827 37.875 56.7227 33.809 56.9964 29.4801C57.0596 28.4835 56.2616 27.6421 55.2627 27.6421V27.6421Z" fill="white"/>
<path d="M43.3517 48.3167C40.739 48.7544 38.0375 49.2071 35.2599 50.2207C31.9092 51.4437 30.8306 54.4451 30.4851 56.1355C37.9692 55.6215 44.6608 52.2246 49.4562 47.0457C47.3902 47.6395 45.3535 47.9813 43.3517 48.3167V48.3167Z" fill="white"/>
<path d="M2.25978 38.9249C3.82617 38.7815 6.54035 38.6217 9.34537 40.5102C10.4248 41.2369 11.8456 41.7392 13.6888 42.0455C15.2292 42.3011 16.6653 42.1048 17.7325 41.4924C18.2703 41.1838 18.792 40.7309 19.3444 40.2514C20.0667 39.6244 20.8854 38.9137 21.8962 38.4103C23.7122 37.5056 25.6769 37.4828 27.4105 37.4626C28.0002 37.4558 28.5573 37.4493 29.0953 37.412C31.5737 37.2396 35.0524 35.7067 38.1738 33.4117C40.6529 31.5888 42.5948 29.5273 43.6532 27.6417H32.921L29.9406 32.6245C29.6194 33.1614 29.04 33.4899 28.4145 33.4899H28.4084C27.7807 33.4877 27.2007 33.1547 26.8822 32.6138L23.9545 27.6416H1.73732C0.738369 27.6416 -0.0595197 28.483 0.00349204 29.48C0.214459 32.8168 0.99999 35.997 2.25978 38.9249V38.9249Z" fill="white"/>
</svg>
