<svg width="23" height="23" viewBox="0 0 23 23" fill="none" xmlns="http://www.w3.org/2000/svg">
<path d="M19.6446 2.60364H18.9721V19.1259C18.9721 20.2235 18.0786 21.117 16.981 21.117H10.167H4.74841V21.7294C4.74841 22.4308 5.31765 23 6.01899 23H12.8306H19.6422C20.3436 23 20.9128 22.4308 20.9128 21.7294V3.87421C20.9128 3.17287 20.346 2.60364 19.6446 2.60364Z" fill="#1B1B1B"/>
<path d="M10.167 20.3964H16.9786C17.6799 20.3964 18.2491 19.8272 18.2491 19.1259V2.60359V1.27057C18.2491 0.569236 17.6799 0 16.9786 0H10.167H7.90201V0.420322C7.90679 0.463555 7.90922 0.50919 7.90922 0.554825V3.32414V4.03509C7.90922 5.02224 7.10701 5.82446 6.11985 5.82446H5.4089H2.63958C2.60355 5.82446 2.56512 5.82206 2.5291 5.81965H2.08716V19.1259C2.08716 19.8272 2.65639 20.3964 3.35773 20.3964H4.7508H10.167ZM10.4239 16.0779H5.98294C5.65149 16.0779 5.38248 15.8089 5.38248 15.4774C5.38248 15.146 5.65149 14.877 5.98294 14.877H10.4263C10.7578 14.877 11.0268 15.146 11.0268 15.4774C11.0268 15.8089 10.7554 16.0779 10.4239 16.0779ZM14.8674 13.0132H5.98294C5.65149 13.0132 5.38248 12.7442 5.38248 12.4127C5.38248 12.0812 5.65149 11.8123 5.98294 11.8123H14.8674C15.1988 11.8123 15.4678 12.0812 15.4678 12.4127C15.4678 12.7442 15.1988 13.0132 14.8674 13.0132ZM5.98294 8.55775H14.8674C15.1988 8.55775 15.4678 8.82675 15.4678 9.15821C15.4678 9.48966 15.1988 9.75867 14.8674 9.75867H5.98294C5.65149 9.75867 5.38248 9.48966 5.38248 9.15821C5.38248 8.82675 5.65149 8.55775 5.98294 8.55775Z" fill="#1B1B1B"/>
<path d="M2.63945 5.10386H6.11971C6.12211 5.10386 6.12691 5.10386 6.12932 5.10386C6.71056 5.09905 7.18132 4.62829 7.18612 4.04705C7.18612 4.04465 7.18612 4.03984 7.18612 4.03744V0.554775C7.18612 0.232929 6.92192 0.019165 6.64814 0.019165C6.51604 0.019165 6.38393 0.0672018 6.27345 0.177686L2.25996 4.19116C1.9237 4.52742 2.16148 5.10386 2.63945 5.10386Z" fill="#1B1B1B"/>
</svg>
