<svg width="29" height="41" viewBox="0 0 29 41" fill="none" xmlns="http://www.w3.org/2000/svg">
<path d="M25.9595 22.003C27.4384 19.5744 28.2282 16.7987 28.2461 13.9701C28.2931 6.52418 22.2532 0.296997 14.678 0.0104972C6.63882 -0.293433 0 6.04205 0 13.872V13.9409C0 16.7649 0.771166 19.5441 2.23011 21.9779L13.4401 40.6779C13.6965 41.1057 14.3257 41.1077 14.585 40.6818L25.9595 22.003ZM5.28307 14.2057C5.28307 9.48987 9.18921 5.65317 13.9904 5.65317C18.7917 5.65317 22.6979 9.48987 22.6979 14.2057C22.6979 18.9217 18.7917 22.7584 13.9904 22.7584C9.18921 22.7584 5.28307 18.9217 5.28307 14.2057Z" fill="#85BF2D"/>
</svg>
